HIERARCHY
ROOT Hips
{
	OFFSET 0.000000 89.005402 0.000000
	CHANNELS 6 Xposition Yposition Zposition Xrotation Yrotation Zrotation
	JOINT Spine
	{
		OFFSET 0.116900 10.681000 0.373400
		CHANNELS 3 Xrotation Yrotation Zrotation
		JOINT Spine1
		{
			OFFSET 0.000000 13.840401 0.053500
			CHANNELS 3 Xrotation Yrotation Zrotation
			JOINT Spine2
			{
				OFFSET 0.000000 14.712700 -0.366200
				CHANNELS 3 Xrotation Yrotation Zrotation
				JOINT Neck
				{
					OFFSET 0.000000 35.415497 -3.314200
					CHANNELS 3 Xrotation Yrotation Zrotation
					JOINT Head
					{
						OFFSET 0.000000 16.899200 1.218300
						CHANNELS 3 Xrotation Yrotation Zrotation
						JOINT HeadTop_End
						{
							OFFSET 0.000000 22.206207 2.192500
							CHANNELS 3 Xrotation Yrotation Zrotation
							End Site
							{
								OFFSET 0.000000 22.314178 0.000000
							}
						}
					}
				}
				JOINT LeftShoulder
				{
					OFFSET 12.896400 26.716293 -4.548400
					CHANNELS 3 Xrotation Yrotation Zrotation
					JOINT LeftArm
					{
						OFFSET 19.027000 -4.857010 -1.718400
						CHANNELS 3 Xrotation Yrotation Zrotation
						JOINT LeftForeArm
						{
							OFFSET 24.179897 0.000000 0.000000
							CHANNELS 3 Xrotation Yrotation Zrotation
							JOINT LeftHand
							{
								OFFSET 27.156403 0.000000 0.000000
								CHANNELS 3 Xrotation Yrotation Zrotation
								JOINT LeftHandIndex1
								{
									OFFSET 16.441200 0.000000 0.000000
									CHANNELS 3 Xrotation Yrotation Zrotation
									JOINT LeftHandIndex2
									{
										OFFSET 4.821899 0.000000 0.000000
										CHANNELS 3 Xrotation Yrotation Zrotation
										JOINT LeftHandIndex3
										{
											OFFSET 6.386497 0.000000 0.000000
											CHANNELS 3 Xrotation Yrotation Zrotation
											JOINT LeftHandIndex4
											{
												OFFSET 5.188988 0.000000 0.000000
												CHANNELS 3 Xrotation Yrotation Zrotation
												End Site
												{
													OFFSET -0.178703 5.185913 0.000177
												}
											}
										}
									}
								}
								JOINT LeftHandThumb1
								{
									OFFSET 6.534897 -5.032593 5.900300
									CHANNELS 3 Xrotation Yrotation Zrotation
									JOINT LeftHandThumb2
									{
										OFFSET 3.818176 -2.204422 2.204423
										CHANNELS 3 Xrotation Yrotation Zrotation
										JOINT LeftHandThumb3
										{
											OFFSET 3.252098 -1.877594 1.877601
											CHANNELS 3 Xrotation Yrotation Zrotation
											JOINT LeftHandThumb4
											{
												OFFSET 5.251778 -3.032120 3.032117
												CHANNELS 3 Xrotation Yrotation Zrotation
												End Site
												{
													OFFSET 0.000023 6.780014 0.000000
												}
											}
										}
									}
								}
							}
						}
					}
				}
				JOINT RightShoulder
				{
					OFFSET -12.896300 26.716293 -4.548400
					CHANNELS 3 Xrotation Yrotation Zrotation
					JOINT RightArm
					{
						OFFSET -19.027000 -4.857010 -1.718400
						CHANNELS 3 Xrotation Yrotation Zrotation
						JOINT RightForeArm
						{
							OFFSET -24.179897 0.000000 0.000000
							CHANNELS 3 Xrotation Yrotation Zrotation
							JOINT RightHand
							{
								OFFSET -27.156403 0.000000 0.000000
								CHANNELS 3 Xrotation Yrotation Zrotation
								JOINT RightHandThumb1
								{
									OFFSET -6.591202 -4.852203 5.988100
									CHANNELS 3 Xrotation Yrotation Zrotation
									JOINT RightHandThumb2
									{
										OFFSET -3.818176 -2.204422 2.204423
										CHANNELS 3 Xrotation Yrotation Zrotation
										JOINT RightHandThumb3
										{
											OFFSET -3.252098 -1.877594 1.877601
											CHANNELS 3 Xrotation Yrotation Zrotation
											JOINT RightHandThumb4
											{
												OFFSET -5.251778 -3.032120 3.032117
												CHANNELS 3 Xrotation Yrotation Zrotation
												End Site
												{
													OFFSET -0.000023 6.780014 0.000000
												}
											}
										}
									}
								}
								JOINT RightHandIndex1
								{
									OFFSET -16.029404 0.000000 0.000000
									CHANNELS 3 Xrotation Yrotation Zrotation
									JOINT RightHandIndex2
									{
										OFFSET -5.213303 0.000000 0.000000
										CHANNELS 3 Xrotation Yrotation Zrotation
										JOINT RightHandIndex3
										{
											OFFSET -6.386528 0.000000 0.000000
											CHANNELS 3 Xrotation Yrotation Zrotation
											JOINT RightHandIndex4
											{
												OFFSET -5.189026 0.000000 0.000000
												CHANNELS 3 Xrotation Yrotation Zrotation
												End Site
												{
													OFFSET 0.236702 5.183624 0.001972
												}
											}
										}
									}
								}
							}
						}
					}
				}
			}
		}
	}
	JOINT LeftUpLeg
	{
		OFFSET 14.073000 -7.904099 -1.463000
		CHANNELS 3 Xrotation Yrotation Zrotation
		JOINT LeftLeg
		{
			OFFSET -0.109806 -34.073280 4.093200
			CHANNELS 3 Xrotation Yrotation Zrotation
			JOINT LeftFoot
			{
				OFFSET 0.109806 -29.899420 -6.319000
				CHANNELS 3 Xrotation Yrotation Zrotation
				JOINT LeftToeBase
				{
					OFFSET 1.551100 -14.988700 20.535801
					CHANNELS 3 Xrotation Yrotation Zrotation
					JOINT LeftToe_End
					{
						OFFSET 0.221200 0.570800 13.248301
						CHANNELS 3 Xrotation Yrotation Zrotation
						End Site
						{
							OFFSET 0.000000 13.262435 0.000000
						}
					}
				}
			}
		}
	}
	JOINT RightUpLeg
	{
		OFFSET -13.839300 -7.904099 -1.463000
		CHANNELS 3 Xrotation Yrotation Zrotation
		JOINT RightLeg
		{
			OFFSET 0.109694 -34.073219 4.093300
			CHANNELS 3 Xrotation Yrotation Zrotation
			JOINT RightFoot
			{
				OFFSET -0.109694 -29.899384 -6.319200
				CHANNELS 3 Xrotation Yrotation Zrotation
				JOINT RightToeBase
				{
					OFFSET -1.551100 -14.988700 20.535801
					CHANNELS 3 Xrotation Yrotation Zrotation
					JOINT RightToe_End
					{
						OFFSET -0.221200 0.570900 13.248299
						CHANNELS 3 Xrotation Yrotation Zrotation
						End Site
						{
							OFFSET 0.000000 13.262440 0.000000
						}
					}
				}
			}
		}
	}
}
MOTION
Frames: 4
Frame Time: 0.033333
-2.215800 172.621429 3.927120 -21.147953 -31.913598 3.637079 14.770221 -0.903474 -4.415271 29.514514 -1.721857 -6.705815 29.514511 -1.721865 -6.705804 1.865626 4.451097 -6.518805 2.113186 7.328644 1.554783 0.000001 0.000000 -0.000000 -4.113441 1.671410 0.666181 -27.705797 8.108628 5.973644 -11.421902 -18.011704 -9.829122 -3.601890 -16.375582 34.301743 -0.901919 -6.981007 -3.808484 0.033474 0.804209 -16.419138 -0.000002 0.000015 -0.000003 -0.000000 -0.000004 0.000000 9.163570 4.814013 -5.499039 -0.335328 0.032536 0.783610 0.000001 0.000004 -0.000007 0.000001 0.000002 -0.000000 -5.378275 -12.971019 -1.368824 -23.271050 -14.249960 -1.670376 -4.396314 27.833086 3.351021 1.715192 5.883118 -37.145475 -8.895845 -4.903087 -0.383555 7.904878 -19.192502 -2.856724 -0.000011 0.000005 0.000003 0.000002 0.000003 0.000002 -1.085517 -1.215511 4.525192 0.142116 -1.115660 16.942484 -0.000006 0.000002 0.000004 -0.000003 -0.000001 -0.000000 -73.949878 -0.474475 22.612176 122.668135 -6.974191 -1.670951 1.202130 0.896414 -16.554717 -1.476129 0.000001 0.000002 -0.000001 0.000000 -0.000000 -71.271863 -4.500441 -24.697001 126.826436 15.233178 0.938761 30.255259 4.104571 20.903495 2.803046 -0.000003 0.000013 -0.000000 -0.000000 -0.000001 
-2.481293 175.951035 12.766024 -18.092215 -30.940962 3.206426 14.786939 -1.263830 -4.271506 29.551237 -1.930798 -6.473573 29.551223 -1.930791 -6.473573 -2.332240 4.463183 -5.810038 3.439853 7.675976 0.823417 0.000000 -0.000000 0.000000 -4.612993 1.516431 4.170975 -27.794323 9.425308 11.355806 -20.203317 -22.402645 -12.947589 -13.398904 0.176007 41.764312 -1.107174 -7.267349 -2.997860 0.269725 0.449348 -15.488704 -0.000002 0.000016 -0.000001 -0.000001 0.000002 0.000001 5.515654 3.583356 -5.268862 -0.811689 0.168885 1.421118 -0.000002 0.000009 -0.000009 -0.000000 -0.000003 0.000001 -5.122485 -10.912633 -2.011480 -23.476110 -13.163565 -7.410091 -8.962226 27.139661 5.377612 -3.709038 2.189543 -41.628217 -10.369796 -3.443144 0.844636 6.354432 -16.884856 -3.523988 -0.000007 0.000003 0.000006 -0.000002 0.000000 -0.000001 -1.530709 0.096257 3.604158 0.362265 -0.745315 15.950414 -0.000002 0.000002 0.000001 0.000001 -0.000001 -0.000001 -85.112101 -1.509085 25.223984 118.058331 -3.635213 0.366207 13.540265 -1.081332 -17.902822 -3.231816 -0.105138 -0.074696 0.000001 0.000000 0.000000 -81.731731 -16.107434 -19.741115 120.688186 4.982239 -3.232321 37.984164 6.072317 18.701205 1.179255 0.239964 0.413124 -0.000000 0.000003 -0.000001 
-2.614149 176.507950 20.538660 -14.086785 -28.880727 3.025730 14.248081 -1.512479 -4.012359 28.476674 -2.038687 -6.104344 28.476672 -2.038682 -6.104341 -6.229030 4.347387 -5.348510 4.055510 8.032862 0.253147 -0.000001 0.000000 0.000000 -4.114680 -0.982395 9.375089 -33.344574 7.169139 18.339768 -36.016257 -27.480598 -16.126734 -22.205807 12.403817 45.064249 -1.545487 -7.954490 -1.137415 0.863132 -0.339767 -13.333604 -0.000003 0.000011 0.000001 -0.000003 0.000002 0.000002 -2.979471 0.510592 -5.770963 -1.917365 0.455415 2.893784 -0.000004 0.000009 -0.000009 0.000000 -0.000001 -0.000002 -4.497574 -6.597263 -3.469932 -26.312696 -12.546366 -19.971883 -20.539323 31.310738 10.291856 -14.557985 -5.876515 -46.971679 -13.740105 -0.231714 3.963705 2.846924 -11.554351 -4.736192 -0.000008 0.000003 0.000007 -0.000000 -0.000001 -0.000000 -2.402605 3.168339 1.546814 0.923283 0.079432 13.653524 -0.000004 0.000001 0.000005 0.000000 -0.000000 0.000002 -92.741654 -0.681943 26.736921 111.601657 -2.375980 2.026076 20.415642 -2.371587 -16.719811 -6.729586 -0.317249 -0.219903 0.000000 0.000000 -0.000000 -88.090466 -26.769188 -15.449207 112.018634 1.733233 -9.242322 40.970193 8.214614 21.736321 -2.053737 0.731427 1.228737 0.000000 0.000000 0.000000 
-2.993157 173.861740 29.241581 -10.096678 -25.693642 3.023382 13.312098 -1.695087 -3.684851 26.610846 -2.051051 -5.558189 26.610847 -2.051063 -5.558187 -9.405815 4.175035 -5.444575 3.763803 8.242511 0.179249 -0.000000 -0.000000 0.000001 -2.702905 -5.054285 15.316515 -36.401712 7.619397 21.053216 -46.063930 -34.323709 -20.090315 -18.467394 9.429194 47.200278 -1.974721 -8.761539 0.921752 1.602091 -1.167123 -10.915902 -0.000000 0.000013 -0.000001 -0.000000 0.000002 0.000002 -12.594208 -2.967455 -8.106933 -3.160089 0.728504 4.538308 -0.000001 0.000007 -0.000009 0.000002 0.000003 -0.000000 -3.347712 -0.292363 -5.560825 -29.409490 -10.212890 -32.246416 -32.958122 31.720416 15.660478 -22.871134 -6.371010 -47.686400 -17.462261 3.068350 7.885788 -1.024859 -5.627517 -5.572418 -0.000003 0.000003 0.000006 -0.000000 -0.000001 0.000000 -3.123561 6.656163 -0.652216 1.633784 0.945762 11.078032 -0.000004 0.000000 0.000002 0.000000 -0.000001 0.000001 -95.184280 1.907196 26.932107 103.684321 -3.209753 2.639727 22.075474 -2.883413 -13.440634 -11.754067 -0.619710 -0.431531 -0.000000 -0.000000 -0.000000 -89.495791 -32.514607 -11.805582 101.785972 6.369912 -13.043013 40.740576 9.977962 26.557929 -6.699234 1.426159 2.406591 -0.000000 -0.000000 0.000001 
